<svg xmlns="http://www.w3.org/2000/svg" version="1.1" xmlns:xlink="http://www.w3.org/1999/xlink" width="1000" height="1000"><style>
    #light-icon {
      display: inline;
    }
    #dark-icon {
      display: none;
    }

    @media (prefers-color-scheme: dark) {
      #light-icon {
        display: none;
      }
      #dark-icon {
        display: inline;
      }
    }
  </style><g id="light-icon"><svg xmlns="http://www.w3.org/2000/svg" version="1.1" xmlns:xlink="http://www.w3.org/1999/xlink" width="1000" height="1000"><g clip-path="url(#SvgjsClipPath1168)"><rect width="1000" height="1000" fill="#ffffff"></rect><g transform="matrix(10,0,0,10,0,0)"><svg xmlns="http://www.w3.org/2000/svg" version="1.1" xmlns:xlink="http://www.w3.org/1999/xlink" width="100" height="100"><svg xmlns="http://www.w3.org/2000/svg" viewBox="0 0 100 100">
  <!-- Distinctive rounded square background -->
  <rect width="100" height="100" rx="20" fill="#10b981"></rect>
  
  <!-- White 'E' and 'S' letters combined with toolbox shape -->
  <g fill="#ffffff">
    <!-- Large 'E' -->
    <path d="M 25 30 L 25 70 L 50 70 L 50 63 L 33 63 L 33 53 L 48 53 L 48 46 L 33 46 L 33 37 L 50 37 L 50 30 Z"></path>
    
    <!-- Stylized 'S' as sharing symbol -->
    <path d="M 60 35 C 60 32 62 30 65 30 L 72 30 C 75 30 77 32 77 35 L 77 38 L 70 38 L 70 37 L 67 37 L 67 42 L 72 42 C 75 42 77 44 77 47 L 77 52 C 77 55 75 57 72 57 L 65 57 C 62 57 60 55 60 52 L 60 49 L 67 49 L 67 50 L 70 50 L 70 45 L 65 45 C 62 45 60 43 60 40 Z"></path>
  </g>
  
  <!-- Orange accent - sharing arrows at bottom -->
  <g fill="#f59e0b">
    <path d="M 35 78 L 40 73 L 40 76 L 60 76 L 60 73 L 65 78 L 60 83 L 60 80 L 40 80 L 40 83 Z"></path>
  </g>
</svg></svg></g></g><defs><clipPath id="SvgjsClipPath1168"><rect width="1000" height="1000" x="0" y="0" rx="500" ry="500"></rect></clipPath></defs></svg></g><g id="dark-icon"><svg xmlns="http://www.w3.org/2000/svg" version="1.1" xmlns:xlink="http://www.w3.org/1999/xlink" width="1000" height="1000"><g clip-path="url(#SvgjsClipPath1169)"><rect width="1000" height="1000" fill="#ffffff"></rect><g transform="matrix(10,0,0,10,0,0)"><svg xmlns="http://www.w3.org/2000/svg" version="1.1" xmlns:xlink="http://www.w3.org/1999/xlink" width="100" height="100"><svg xmlns="http://www.w3.org/2000/svg" viewBox="0 0 100 100">
  <!-- Distinctive rounded square background -->
  <rect width="100" height="100" rx="20" fill="#10b981"></rect>
  
  <!-- White 'E' and 'S' letters combined with toolbox shape -->
  <g fill="#ffffff">
    <!-- Large 'E' -->
    <path d="M 25 30 L 25 70 L 50 70 L 50 63 L 33 63 L 33 53 L 48 53 L 48 46 L 33 46 L 33 37 L 50 37 L 50 30 Z"></path>
    
    <!-- Stylized 'S' as sharing symbol -->
    <path d="M 60 35 C 60 32 62 30 65 30 L 72 30 C 75 30 77 32 77 35 L 77 38 L 70 38 L 70 37 L 67 37 L 67 42 L 72 42 C 75 42 77 44 77 47 L 77 52 C 77 55 75 57 72 57 L 65 57 C 62 57 60 55 60 52 L 60 49 L 67 49 L 67 50 L 70 50 L 70 45 L 65 45 C 62 45 60 43 60 40 Z"></path>
  </g>
  
  <!-- Orange accent - sharing arrows at bottom -->
  <g fill="#f59e0b">
    <path d="M 35 78 L 40 73 L 40 76 L 60 76 L 60 73 L 65 78 L 60 83 L 60 80 L 40 80 L 40 83 Z"></path>
  </g>
</svg></svg></g></g><defs><clipPath id="SvgjsClipPath1169"><rect width="1000" height="1000" x="0" y="0" rx="500" ry="500"></rect></clipPath></defs></svg></g></svg>